<mxfile host="app.diagrams.net" agent="Mozilla/5.0 (Windows NT 10.0; Win64; x64) AppleWebKit/537.36 (KHTML, like Gecko) Chrome/129.0.0.0 Safari/537.36" version="24.7.17">
  <diagram name="Page-1" id="tIOwsg5zAjYBb83AUIUc">
    <mxGraphModel dx="474" dy="788" grid="1" gridSize="10" guides="1" tooltips="1" connect="1" arrows="1" fold="1" page="1" pageScale="1" pageWidth="827" pageHeight="1169" math="0" shadow="0">
      <root>
        <mxCell id="0" />
        <mxCell id="1" parent="0" />
        <mxCell id="bLritKQCxYEL-8aHsi83-15" value="" style="edgeStyle=orthogonalEdgeStyle;rounded=0;orthogonalLoop=1;jettySize=auto;html=1;endArrow=none;endFill=0;" edge="1" parent="1" source="bLritKQCxYEL-8aHsi83-1" target="bLritKQCxYEL-8aHsi83-8">
          <mxGeometry relative="1" as="geometry" />
        </mxCell>
        <mxCell id="bLritKQCxYEL-8aHsi83-1" value="Componente" style="rounded=0;whiteSpace=wrap;html=1;" vertex="1" parent="1">
          <mxGeometry x="580" y="760" width="120" height="60" as="geometry" />
        </mxCell>
        <mxCell id="bLritKQCxYEL-8aHsi83-14" value="" style="edgeStyle=orthogonalEdgeStyle;rounded=0;orthogonalLoop=1;jettySize=auto;html=1;endArrow=none;endFill=0;" edge="1" parent="1" source="bLritKQCxYEL-8aHsi83-2" target="bLritKQCxYEL-8aHsi83-8">
          <mxGeometry relative="1" as="geometry" />
        </mxCell>
        <mxCell id="bLritKQCxYEL-8aHsi83-2" value="Equipo" style="rounded=0;whiteSpace=wrap;html=1;" vertex="1" parent="1">
          <mxGeometry x="580" y="470" width="120" height="60" as="geometry" />
        </mxCell>
        <mxCell id="bLritKQCxYEL-8aHsi83-11" style="edgeStyle=orthogonalEdgeStyle;rounded=0;orthogonalLoop=1;jettySize=auto;html=1;entryX=0.5;entryY=0;entryDx=0;entryDy=0;endArrow=none;endFill=0;" edge="1" parent="1" source="bLritKQCxYEL-8aHsi83-3" target="bLritKQCxYEL-8aHsi83-10">
          <mxGeometry relative="1" as="geometry" />
        </mxCell>
        <mxCell id="bLritKQCxYEL-8aHsi83-40" style="edgeStyle=orthogonalEdgeStyle;rounded=0;orthogonalLoop=1;jettySize=auto;html=1;exitX=0.75;exitY=0;exitDx=0;exitDy=0;endArrow=oval;endFill=0;" edge="1" parent="1" source="bLritKQCxYEL-8aHsi83-3">
          <mxGeometry relative="1" as="geometry">
            <mxPoint x="175" y="220" as="targetPoint" />
          </mxGeometry>
        </mxCell>
        <mxCell id="bLritKQCxYEL-8aHsi83-42" style="edgeStyle=orthogonalEdgeStyle;rounded=0;orthogonalLoop=1;jettySize=auto;html=1;exitX=1;exitY=0;exitDx=0;exitDy=0;endArrow=oval;endFill=0;" edge="1" parent="1" source="bLritKQCxYEL-8aHsi83-3">
          <mxGeometry relative="1" as="geometry">
            <mxPoint x="205" y="240" as="targetPoint" />
          </mxGeometry>
        </mxCell>
        <mxCell id="bLritKQCxYEL-8aHsi83-3" value="Cliente" style="rounded=0;whiteSpace=wrap;html=1;" vertex="1" parent="1">
          <mxGeometry x="85" y="260" width="120" height="60" as="geometry" />
        </mxCell>
        <mxCell id="bLritKQCxYEL-8aHsi83-16" style="edgeStyle=orthogonalEdgeStyle;rounded=0;orthogonalLoop=1;jettySize=auto;html=1;entryX=0.5;entryY=0;entryDx=0;entryDy=0;endArrow=none;endFill=0;" edge="1" parent="1" source="bLritKQCxYEL-8aHsi83-4" target="bLritKQCxYEL-8aHsi83-9">
          <mxGeometry relative="1" as="geometry" />
        </mxCell>
        <mxCell id="bLritKQCxYEL-8aHsi83-18" value="" style="edgeStyle=orthogonalEdgeStyle;rounded=0;orthogonalLoop=1;jettySize=auto;html=1;endArrow=none;endFill=0;" edge="1" parent="1" source="bLritKQCxYEL-8aHsi83-4" target="bLritKQCxYEL-8aHsi83-7">
          <mxGeometry relative="1" as="geometry" />
        </mxCell>
        <mxCell id="bLritKQCxYEL-8aHsi83-22" style="edgeStyle=orthogonalEdgeStyle;rounded=0;orthogonalLoop=1;jettySize=auto;html=1;exitX=0;exitY=0;exitDx=0;exitDy=0;endArrow=oval;endFill=1;" edge="1" parent="1" source="bLritKQCxYEL-8aHsi83-4">
          <mxGeometry relative="1" as="geometry">
            <mxPoint x="690" y="114" as="targetPoint" />
          </mxGeometry>
        </mxCell>
        <mxCell id="bLritKQCxYEL-8aHsi83-24" style="edgeStyle=orthogonalEdgeStyle;rounded=0;orthogonalLoop=1;jettySize=auto;html=1;exitX=0.25;exitY=0;exitDx=0;exitDy=0;endArrow=oval;endFill=0;" edge="1" parent="1" source="bLritKQCxYEL-8aHsi83-4">
          <mxGeometry relative="1" as="geometry">
            <mxPoint x="720" y="144" as="targetPoint" />
          </mxGeometry>
        </mxCell>
        <mxCell id="bLritKQCxYEL-8aHsi83-26" style="edgeStyle=orthogonalEdgeStyle;rounded=0;orthogonalLoop=1;jettySize=auto;html=1;exitX=0.5;exitY=0;exitDx=0;exitDy=0;endArrow=oval;endFill=0;" edge="1" parent="1" source="bLritKQCxYEL-8aHsi83-4">
          <mxGeometry relative="1" as="geometry">
            <mxPoint x="750" y="164" as="targetPoint" />
          </mxGeometry>
        </mxCell>
        <mxCell id="bLritKQCxYEL-8aHsi83-63" style="edgeStyle=orthogonalEdgeStyle;rounded=0;orthogonalLoop=1;jettySize=auto;html=1;exitX=0.25;exitY=1;exitDx=0;exitDy=0;entryX=1;entryY=0.5;entryDx=0;entryDy=0;endArrow=none;endFill=0;dashed=1;" edge="1" parent="1" source="bLritKQCxYEL-8aHsi83-4" target="bLritKQCxYEL-8aHsi83-62">
          <mxGeometry relative="1" as="geometry" />
        </mxCell>
        <mxCell id="bLritKQCxYEL-8aHsi83-82" style="edgeStyle=orthogonalEdgeStyle;rounded=0;orthogonalLoop=1;jettySize=auto;html=1;exitX=1;exitY=0.5;exitDx=0;exitDy=0;entryX=1;entryY=0.5;entryDx=0;entryDy=0;endArrow=none;endFill=0;" edge="1" parent="1" source="bLritKQCxYEL-8aHsi83-4" target="bLritKQCxYEL-8aHsi83-81">
          <mxGeometry relative="1" as="geometry" />
        </mxCell>
        <mxCell id="bLritKQCxYEL-8aHsi83-4" value="Empleado" style="rounded=0;whiteSpace=wrap;html=1;" vertex="1" parent="1">
          <mxGeometry x="690" y="224" width="120" height="60" as="geometry" />
        </mxCell>
        <mxCell id="bLritKQCxYEL-8aHsi83-64" style="edgeStyle=orthogonalEdgeStyle;rounded=0;orthogonalLoop=1;jettySize=auto;html=1;exitX=0.75;exitY=1;exitDx=0;exitDy=0;entryX=0;entryY=0.5;entryDx=0;entryDy=0;endArrow=none;endFill=0;dashed=1;" edge="1" parent="1" source="bLritKQCxYEL-8aHsi83-5" target="bLritKQCxYEL-8aHsi83-62">
          <mxGeometry relative="1" as="geometry" />
        </mxCell>
        <mxCell id="bLritKQCxYEL-8aHsi83-5" value="SecciÃ³n" style="rounded=0;whiteSpace=wrap;html=1;" vertex="1" parent="1">
          <mxGeometry x="370" y="224" width="120" height="60" as="geometry" />
        </mxCell>
        <mxCell id="bLritKQCxYEL-8aHsi83-19" value="" style="edgeStyle=orthogonalEdgeStyle;rounded=0;orthogonalLoop=1;jettySize=auto;html=1;endArrow=none;endFill=0;" edge="1" parent="1" source="bLritKQCxYEL-8aHsi83-7" target="bLritKQCxYEL-8aHsi83-5">
          <mxGeometry relative="1" as="geometry" />
        </mxCell>
        <mxCell id="bLritKQCxYEL-8aHsi83-65" style="edgeStyle=orthogonalEdgeStyle;rounded=0;orthogonalLoop=1;jettySize=auto;html=1;exitX=0.5;exitY=0;exitDx=0;exitDy=0;endArrow=oval;endFill=0;" edge="1" parent="1" source="bLritKQCxYEL-8aHsi83-7">
          <mxGeometry relative="1" as="geometry">
            <mxPoint x="595" y="180" as="targetPoint" />
          </mxGeometry>
        </mxCell>
        <mxCell id="bLritKQCxYEL-8aHsi83-7" value="Pertenece" style="rhombus;whiteSpace=wrap;html=1;" vertex="1" parent="1">
          <mxGeometry x="530" y="224" width="130" height="60" as="geometry" />
        </mxCell>
        <mxCell id="bLritKQCxYEL-8aHsi83-8" value="Compone" style="rhombus;whiteSpace=wrap;html=1;" vertex="1" parent="1">
          <mxGeometry x="575" y="610" width="130" height="60" as="geometry" />
        </mxCell>
        <mxCell id="bLritKQCxYEL-8aHsi83-17" style="edgeStyle=orthogonalEdgeStyle;rounded=0;orthogonalLoop=1;jettySize=auto;html=1;entryX=1;entryY=0.5;entryDx=0;entryDy=0;endArrow=none;endFill=0;" edge="1" parent="1" source="bLritKQCxYEL-8aHsi83-9" target="bLritKQCxYEL-8aHsi83-2">
          <mxGeometry relative="1" as="geometry" />
        </mxCell>
        <mxCell id="bLritKQCxYEL-8aHsi83-9" value="Monta" style="rhombus;whiteSpace=wrap;html=1;" vertex="1" parent="1">
          <mxGeometry x="685" y="370" width="130" height="60" as="geometry" />
        </mxCell>
        <mxCell id="bLritKQCxYEL-8aHsi83-21" style="edgeStyle=orthogonalEdgeStyle;rounded=0;orthogonalLoop=1;jettySize=auto;html=1;entryX=0;entryY=0.5;entryDx=0;entryDy=0;endArrow=none;endFill=0;" edge="1" parent="1" source="bLritKQCxYEL-8aHsi83-10" target="bLritKQCxYEL-8aHsi83-20">
          <mxGeometry relative="1" as="geometry">
            <Array as="points">
              <mxPoint x="145" y="640" />
            </Array>
          </mxGeometry>
        </mxCell>
        <mxCell id="bLritKQCxYEL-8aHsi83-10" value="Compra" style="rhombus;whiteSpace=wrap;html=1;" vertex="1" parent="1">
          <mxGeometry x="80" y="470" width="130" height="60" as="geometry" />
        </mxCell>
        <mxCell id="bLritKQCxYEL-8aHsi83-52" style="edgeStyle=orthogonalEdgeStyle;rounded=0;orthogonalLoop=1;jettySize=auto;html=1;exitX=0.75;exitY=0;exitDx=0;exitDy=0;endArrow=oval;endFill=0;" edge="1" parent="1" source="bLritKQCxYEL-8aHsi83-20">
          <mxGeometry relative="1" as="geometry">
            <mxPoint x="405" y="570" as="targetPoint" />
          </mxGeometry>
        </mxCell>
        <mxCell id="bLritKQCxYEL-8aHsi83-54" style="edgeStyle=orthogonalEdgeStyle;rounded=0;orthogonalLoop=1;jettySize=auto;html=1;exitX=1;exitY=0;exitDx=0;exitDy=0;endArrow=oval;endFill=0;" edge="1" parent="1" source="bLritKQCxYEL-8aHsi83-20">
          <mxGeometry relative="1" as="geometry">
            <mxPoint x="435" y="590" as="targetPoint" />
          </mxGeometry>
        </mxCell>
        <mxCell id="bLritKQCxYEL-8aHsi83-68" value="" style="edgeStyle=orthogonalEdgeStyle;rounded=0;orthogonalLoop=1;jettySize=auto;html=1;endArrow=none;endFill=0;" edge="1" parent="1" source="bLritKQCxYEL-8aHsi83-20" target="bLritKQCxYEL-8aHsi83-67">
          <mxGeometry relative="1" as="geometry" />
        </mxCell>
        <mxCell id="bLritKQCxYEL-8aHsi83-20" value="Articulo" style="rounded=0;whiteSpace=wrap;html=1;" vertex="1" parent="1">
          <mxGeometry x="315" y="610" width="120" height="60" as="geometry" />
        </mxCell>
        <mxCell id="bLritKQCxYEL-8aHsi83-23" value="NIF" style="text;html=1;align=center;verticalAlign=middle;resizable=0;points=[];autosize=1;strokeColor=none;fillColor=none;" vertex="1" parent="1">
          <mxGeometry x="670" y="82" width="40" height="30" as="geometry" />
        </mxCell>
        <mxCell id="bLritKQCxYEL-8aHsi83-25" value="Nombre" style="text;html=1;align=center;verticalAlign=middle;resizable=0;points=[];autosize=1;strokeColor=none;fillColor=none;" vertex="1" parent="1">
          <mxGeometry x="685" y="112" width="70" height="30" as="geometry" />
        </mxCell>
        <mxCell id="bLritKQCxYEL-8aHsi83-27" value="Apellidos" style="text;html=1;align=center;verticalAlign=middle;resizable=0;points=[];autosize=1;strokeColor=none;fillColor=none;" vertex="1" parent="1">
          <mxGeometry x="715" y="132" width="70" height="30" as="geometry" />
        </mxCell>
        <mxCell id="bLritKQCxYEL-8aHsi83-28" style="edgeStyle=orthogonalEdgeStyle;rounded=0;orthogonalLoop=1;jettySize=auto;html=1;exitX=0;exitY=0;exitDx=0;exitDy=0;endArrow=oval;endFill=1;" edge="1" parent="1">
          <mxGeometry relative="1" as="geometry">
            <mxPoint x="370" y="114" as="targetPoint" />
            <mxPoint x="370" y="224" as="sourcePoint" />
          </mxGeometry>
        </mxCell>
        <mxCell id="bLritKQCxYEL-8aHsi83-29" style="edgeStyle=orthogonalEdgeStyle;rounded=0;orthogonalLoop=1;jettySize=auto;html=1;exitX=0.25;exitY=0;exitDx=0;exitDy=0;endArrow=oval;endFill=0;" edge="1" parent="1">
          <mxGeometry relative="1" as="geometry">
            <mxPoint x="400" y="144" as="targetPoint" />
            <mxPoint x="400" y="224" as="sourcePoint" />
          </mxGeometry>
        </mxCell>
        <mxCell id="bLritKQCxYEL-8aHsi83-31" value="ID" style="text;html=1;align=center;verticalAlign=middle;resizable=0;points=[];autosize=1;strokeColor=none;fillColor=none;" vertex="1" parent="1">
          <mxGeometry x="350" y="82" width="40" height="30" as="geometry" />
        </mxCell>
        <mxCell id="bLritKQCxYEL-8aHsi83-32" value="Nombre" style="text;html=1;align=center;verticalAlign=middle;resizable=0;points=[];autosize=1;strokeColor=none;fillColor=none;" vertex="1" parent="1">
          <mxGeometry x="365" y="112" width="70" height="30" as="geometry" />
        </mxCell>
        <mxCell id="bLritKQCxYEL-8aHsi83-34" style="edgeStyle=orthogonalEdgeStyle;rounded=0;orthogonalLoop=1;jettySize=auto;html=1;exitX=0;exitY=0;exitDx=0;exitDy=0;endArrow=oval;endFill=1;" edge="1" parent="1">
          <mxGeometry relative="1" as="geometry">
            <mxPoint x="85" y="150" as="targetPoint" />
            <mxPoint x="85" y="260" as="sourcePoint" />
          </mxGeometry>
        </mxCell>
        <mxCell id="bLritKQCxYEL-8aHsi83-35" style="edgeStyle=orthogonalEdgeStyle;rounded=0;orthogonalLoop=1;jettySize=auto;html=1;exitX=0.25;exitY=0;exitDx=0;exitDy=0;endArrow=oval;endFill=0;" edge="1" parent="1">
          <mxGeometry relative="1" as="geometry">
            <mxPoint x="115" y="180" as="targetPoint" />
            <mxPoint x="115" y="260" as="sourcePoint" />
          </mxGeometry>
        </mxCell>
        <mxCell id="bLritKQCxYEL-8aHsi83-36" style="edgeStyle=orthogonalEdgeStyle;rounded=0;orthogonalLoop=1;jettySize=auto;html=1;exitX=0.5;exitY=0;exitDx=0;exitDy=0;endArrow=oval;endFill=0;" edge="1" parent="1">
          <mxGeometry relative="1" as="geometry">
            <mxPoint x="145" y="200" as="targetPoint" />
            <mxPoint x="145" y="260" as="sourcePoint" />
          </mxGeometry>
        </mxCell>
        <mxCell id="bLritKQCxYEL-8aHsi83-37" value="NIF" style="text;html=1;align=center;verticalAlign=middle;resizable=0;points=[];autosize=1;strokeColor=none;fillColor=none;" vertex="1" parent="1">
          <mxGeometry x="65" y="118" width="40" height="30" as="geometry" />
        </mxCell>
        <mxCell id="bLritKQCxYEL-8aHsi83-38" value="Nombre" style="text;html=1;align=center;verticalAlign=middle;resizable=0;points=[];autosize=1;strokeColor=none;fillColor=none;" vertex="1" parent="1">
          <mxGeometry x="80" y="148" width="70" height="30" as="geometry" />
        </mxCell>
        <mxCell id="bLritKQCxYEL-8aHsi83-39" value="Apellidos" style="text;html=1;align=center;verticalAlign=middle;resizable=0;points=[];autosize=1;strokeColor=none;fillColor=none;" vertex="1" parent="1">
          <mxGeometry x="110" y="168" width="70" height="30" as="geometry" />
        </mxCell>
        <mxCell id="bLritKQCxYEL-8aHsi83-41" value="Ciudad" style="text;html=1;align=center;verticalAlign=middle;resizable=0;points=[];autosize=1;strokeColor=none;fillColor=none;" vertex="1" parent="1">
          <mxGeometry x="150" y="188" width="60" height="30" as="geometry" />
        </mxCell>
        <mxCell id="bLritKQCxYEL-8aHsi83-43" value="Telf" style="text;html=1;align=center;verticalAlign=middle;resizable=0;points=[];autosize=1;strokeColor=none;fillColor=none;" vertex="1" parent="1">
          <mxGeometry x="183" y="210" width="40" height="30" as="geometry" />
        </mxCell>
        <mxCell id="bLritKQCxYEL-8aHsi83-44" style="edgeStyle=orthogonalEdgeStyle;rounded=0;orthogonalLoop=1;jettySize=auto;html=1;exitX=0;exitY=0;exitDx=0;exitDy=0;endArrow=oval;endFill=1;" edge="1" parent="1">
          <mxGeometry relative="1" as="geometry">
            <mxPoint x="315" y="501" as="targetPoint" />
            <mxPoint x="315" y="611" as="sourcePoint" />
          </mxGeometry>
        </mxCell>
        <mxCell id="bLritKQCxYEL-8aHsi83-45" style="edgeStyle=orthogonalEdgeStyle;rounded=0;orthogonalLoop=1;jettySize=auto;html=1;exitX=0.25;exitY=0;exitDx=0;exitDy=0;endArrow=oval;endFill=0;" edge="1" parent="1">
          <mxGeometry relative="1" as="geometry">
            <mxPoint x="345" y="531" as="targetPoint" />
            <mxPoint x="345" y="611" as="sourcePoint" />
          </mxGeometry>
        </mxCell>
        <mxCell id="bLritKQCxYEL-8aHsi83-46" style="edgeStyle=orthogonalEdgeStyle;rounded=0;orthogonalLoop=1;jettySize=auto;html=1;exitX=0.5;exitY=0;exitDx=0;exitDy=0;endArrow=oval;endFill=0;" edge="1" parent="1">
          <mxGeometry relative="1" as="geometry">
            <mxPoint x="375" y="551" as="targetPoint" />
            <mxPoint x="375" y="611" as="sourcePoint" />
          </mxGeometry>
        </mxCell>
        <mxCell id="bLritKQCxYEL-8aHsi83-47" value="Nombre" style="text;html=1;align=center;verticalAlign=middle;resizable=0;points=[];autosize=1;strokeColor=none;fillColor=none;" vertex="1" parent="1">
          <mxGeometry x="370" y="542" width="70" height="30" as="geometry" />
        </mxCell>
        <mxCell id="bLritKQCxYEL-8aHsi83-48" value="Precio" style="text;html=1;align=center;verticalAlign=middle;resizable=0;points=[];autosize=1;strokeColor=none;fillColor=none;" vertex="1" parent="1">
          <mxGeometry x="315" y="499" width="60" height="30" as="geometry" />
        </mxCell>
        <mxCell id="bLritKQCxYEL-8aHsi83-49" value="Desc" style="text;html=1;align=center;verticalAlign=middle;resizable=0;points=[];autosize=1;strokeColor=none;fillColor=none;" vertex="1" parent="1">
          <mxGeometry x="350" y="519" width="50" height="30" as="geometry" />
        </mxCell>
        <mxCell id="bLritKQCxYEL-8aHsi83-53" value="CÃ³digo" style="text;html=1;align=center;verticalAlign=middle;resizable=0;points=[];autosize=1;strokeColor=none;fillColor=none;" vertex="1" parent="1">
          <mxGeometry x="284" y="473" width="60" height="30" as="geometry" />
        </mxCell>
        <mxCell id="bLritKQCxYEL-8aHsi83-55" value="Stock" style="text;html=1;align=center;verticalAlign=middle;resizable=0;points=[];autosize=1;strokeColor=none;fillColor=none;" vertex="1" parent="1">
          <mxGeometry x="411" y="560" width="50" height="30" as="geometry" />
        </mxCell>
        <mxCell id="bLritKQCxYEL-8aHsi83-56" value="1:M" style="text;html=1;align=center;verticalAlign=middle;resizable=0;points=[];autosize=1;strokeColor=none;fillColor=none;" vertex="1" parent="1">
          <mxGeometry x="490" y="224" width="40" height="30" as="geometry" />
        </mxCell>
        <mxCell id="bLritKQCxYEL-8aHsi83-57" value="1:1" style="text;html=1;align=center;verticalAlign=middle;resizable=0;points=[];autosize=1;strokeColor=none;fillColor=none;" vertex="1" parent="1">
          <mxGeometry x="650" y="224" width="40" height="30" as="geometry" />
        </mxCell>
        <mxCell id="bLritKQCxYEL-8aHsi83-58" value="1:M" style="text;html=1;align=center;verticalAlign=middle;resizable=0;points=[];autosize=1;strokeColor=none;fillColor=none;" vertex="1" parent="1">
          <mxGeometry x="705" y="470" width="40" height="30" as="geometry" />
        </mxCell>
        <mxCell id="bLritKQCxYEL-8aHsi83-62" value="Dirige" style="rhombus;whiteSpace=wrap;html=1;dashed=1;" vertex="1" parent="1">
          <mxGeometry x="530" y="330" width="130" height="60" as="geometry" />
        </mxCell>
        <mxCell id="bLritKQCxYEL-8aHsi83-66" value="Es_Director" style="text;html=1;align=center;verticalAlign=middle;resizable=0;points=[];autosize=1;strokeColor=none;fillColor=none;" vertex="1" parent="1">
          <mxGeometry x="550" y="148" width="90" height="30" as="geometry" />
        </mxCell>
        <mxCell id="bLritKQCxYEL-8aHsi83-69" style="edgeStyle=orthogonalEdgeStyle;rounded=0;orthogonalLoop=1;jettySize=auto;html=1;entryX=0;entryY=0.5;entryDx=0;entryDy=0;endArrow=none;endFill=0;" edge="1" parent="1" source="bLritKQCxYEL-8aHsi83-67" target="bLritKQCxYEL-8aHsi83-2">
          <mxGeometry relative="1" as="geometry">
            <Array as="points">
              <mxPoint x="510" y="500" />
            </Array>
          </mxGeometry>
        </mxCell>
        <mxCell id="bLritKQCxYEL-8aHsi83-71" style="edgeStyle=orthogonalEdgeStyle;rounded=0;orthogonalLoop=1;jettySize=auto;html=1;exitX=1;exitY=0.5;exitDx=0;exitDy=0;entryX=0;entryY=0.5;entryDx=0;entryDy=0;endArrow=none;endFill=0;" edge="1" parent="1" source="bLritKQCxYEL-8aHsi83-67" target="bLritKQCxYEL-8aHsi83-1">
          <mxGeometry relative="1" as="geometry" />
        </mxCell>
        <mxCell id="bLritKQCxYEL-8aHsi83-67" value="" style="triangle;whiteSpace=wrap;html=1;rotation=90;" vertex="1" parent="1">
          <mxGeometry x="480" y="600" width="60" height="80" as="geometry" />
        </mxCell>
        <mxCell id="bLritKQCxYEL-8aHsi83-70" value="Es" style="text;html=1;align=center;verticalAlign=middle;resizable=0;points=[];autosize=1;strokeColor=none;fillColor=none;" vertex="1" parent="1">
          <mxGeometry x="490" y="619" width="40" height="30" as="geometry" />
        </mxCell>
        <mxCell id="bLritKQCxYEL-8aHsi83-72" value="N:M" style="text;html=1;align=center;verticalAlign=middle;resizable=0;points=[];autosize=1;strokeColor=none;fillColor=none;" vertex="1" parent="1">
          <mxGeometry x="570" y="390" width="50" height="30" as="geometry" />
        </mxCell>
        <mxCell id="bLritKQCxYEL-8aHsi83-73" value="2&lt;span style=&quot;background-color: initial;&quot;&gt;:M&lt;/span&gt;" style="text;html=1;align=center;verticalAlign=middle;resizable=0;points=[];autosize=1;strokeColor=none;fillColor=none;" vertex="1" parent="1">
          <mxGeometry x="595" y="730" width="40" height="30" as="geometry" />
        </mxCell>
        <mxCell id="bLritKQCxYEL-8aHsi83-74" value="1:M" style="text;html=1;align=center;verticalAlign=middle;resizable=0;points=[];autosize=1;strokeColor=none;fillColor=none;" vertex="1" parent="1">
          <mxGeometry x="595" y="530" width="40" height="30" as="geometry" />
        </mxCell>
        <mxCell id="bLritKQCxYEL-8aHsi83-75" value="N:M" style="text;html=1;align=center;verticalAlign=middle;resizable=0;points=[];autosize=1;strokeColor=none;fillColor=none;" vertex="1" parent="1">
          <mxGeometry x="705" y="625" width="50" height="30" as="geometry" />
        </mxCell>
        <mxCell id="bLritKQCxYEL-8aHsi83-76" value="1:M" style="text;html=1;align=center;verticalAlign=middle;resizable=0;points=[];autosize=1;strokeColor=none;fillColor=none;" vertex="1" parent="1">
          <mxGeometry x="145" y="320" width="40" height="30" as="geometry" />
        </mxCell>
        <mxCell id="bLritKQCxYEL-8aHsi83-77" value="N:M" style="text;html=1;align=center;verticalAlign=middle;resizable=0;points=[];autosize=1;strokeColor=none;fillColor=none;" vertex="1" parent="1">
          <mxGeometry x="30" y="485" width="50" height="30" as="geometry" />
        </mxCell>
        <mxCell id="bLritKQCxYEL-8aHsi83-78" value="1:M" style="text;html=1;align=center;verticalAlign=middle;resizable=0;points=[];autosize=1;strokeColor=none;fillColor=none;" vertex="1" parent="1">
          <mxGeometry x="275" y="640" width="40" height="30" as="geometry" />
        </mxCell>
        <mxCell id="bLritKQCxYEL-8aHsi83-91" style="edgeStyle=orthogonalEdgeStyle;rounded=0;orthogonalLoop=1;jettySize=auto;html=1;exitX=0;exitY=0.5;exitDx=0;exitDy=0;entryX=1;entryY=0.5;entryDx=0;entryDy=0;endArrow=none;endFill=0;" edge="1" parent="1" source="bLritKQCxYEL-8aHsi83-81" target="bLritKQCxYEL-8aHsi83-90">
          <mxGeometry relative="1" as="geometry" />
        </mxCell>
        <mxCell id="bLritKQCxYEL-8aHsi83-81" value="Atiende" style="rhombus;whiteSpace=wrap;html=1;" vertex="1" parent="1">
          <mxGeometry x="365" width="130" height="60" as="geometry" />
        </mxCell>
        <mxCell id="bLritKQCxYEL-8aHsi83-90" value="" style="rounded=0;whiteSpace=wrap;html=1;fillColor=none;" vertex="1" parent="1">
          <mxGeometry x="15" y="120" width="260" height="430" as="geometry" />
        </mxCell>
      </root>
    </mxGraphModel>
  </diagram>
</mxfile>
